<svg width="157" height="55" viewBox="0 0 157 55" fill="none" xmlns="http://www.w3.org/2000/svg">
<g opacity="0.05" filter="url(#filter0_f_1_413)">
</g>
<g opacity="0.1" filter="url(#filter1_f_1_413)">
</g>
<g opacity="0.15" filter="url(#filter2_f_1_413)">
<mask id="mask0_1_413" style="mask-type:alpha" maskUnits="userSpaceOnUse" x="53" y="53" width="48" height="48">
<path d="M53.4022 59.6183C53.4022 56.2009 56.1725 53.4305 59.59 53.4305H65.7778V65.8061H59.59C56.1725 65.8061 53.4022 63.0357 53.4022 59.6183Z" fill="#FF773D"/>
<path d="M78.1533 59.6183C78.1533 56.2009 75.3829 53.4305 71.9655 53.4305H65.7777V65.8061H71.9655C75.3829 65.8061 78.1533 63.0357 78.1533 59.6183Z" fill="#FFB1A3"/>
</mask>
<g mask="url(#mask0_1_413)">
<g filter="url(#filter3_d_1_413)">
<rect x="53" y="53" width="47.9993" height="47.9981" fill="#171717"/>
</g>
</g>
</g>
<g opacity="0.2" filter="url(#filter4_f_1_413)">
<mask id="mask1_1_413" style="mask-type:alpha" maskUnits="userSpaceOnUse" x="49" y="49" width="48" height="48">
<path d="M49.4022 55.6183C49.4022 52.2009 52.1725 49.4305 55.59 49.4305H61.7778V61.8061H55.59C52.1725 61.8061 49.4022 59.0357 49.4022 55.6183Z" fill="#FF773D"/>
<path d="M74.1533 55.6183C74.1533 52.2009 71.3829 49.4305 67.9655 49.4305H61.7777V61.8061H67.9655C71.3829 61.8061 74.1533 59.0357 74.1533 55.6183Z" fill="#FFB1A3"/>
</mask>
<g mask="url(#mask1_1_413)">
<g filter="url(#filter5_d_1_413)">
<rect x="49" y="49" width="47.9993" height="47.9981" fill="#171717"/>
</g>
</g>
</g>
<g opacity="0.25" filter="url(#filter6_f_1_413)">
<mask id="mask2_1_413" style="mask-type:alpha" maskUnits="userSpaceOnUse" x="41" y="41" width="48" height="48">
<path d="M41.4022 47.6183C41.4022 44.2009 44.1725 41.4305 47.59 41.4305H53.7778V53.8061H47.59C44.1725 53.8061 41.4022 51.0357 41.4022 47.6183Z" fill="#FF773D"/>
<path d="M41.4022 59.9939C41.4022 56.5765 44.1725 53.8061 47.59 53.8061H53.7778V66.1817H47.59C44.1725 66.1817 41.4022 63.4113 41.4022 59.9939Z" fill="#C677FF"/>
<path d="M66.1533 47.6183C66.1533 44.2009 63.3829 41.4305 59.9655 41.4305H53.7777V53.8061H59.9655C63.3829 53.8061 66.1533 51.0357 66.1533 47.6183Z" fill="#FFB1A3"/>
<circle cx="59.9656" cy="59.9939" r="6.1878" fill="#2FEBFF"/>
</mask>
<g mask="url(#mask2_1_413)">
<g filter="url(#filter7_d_1_413)">
<rect x="41" y="41" width="47.9993" height="47.9981" fill="#171717"/>
</g>
</g>
</g>
<g opacity="0.3" filter="url(#filter8_f_1_413)">
<mask id="mask3_1_413" style="mask-type:alpha" maskUnits="userSpaceOnUse" x="33" y="33" width="48" height="48">
<path d="M33.4022 39.6183C33.4022 36.2009 36.1725 33.4305 39.59 33.4305H45.7778V45.8061H39.59C36.1725 45.8061 33.4022 43.0357 33.4022 39.6183Z" fill="#FF773D"/>
<path d="M33.4022 51.9939C33.4022 48.5765 36.1725 45.8061 39.59 45.8061H45.7778V58.1817H39.59C36.1725 58.1817 33.4022 55.4113 33.4022 51.9939Z" fill="#C677FF"/>
<path d="M58.1533 39.6183C58.1533 36.2009 55.3829 33.4305 51.9655 33.4305H45.7777V45.8061H51.9655C55.3829 45.8061 58.1533 43.0357 58.1533 39.6183Z" fill="#FFB1A3"/>
<circle cx="51.9656" cy="51.9939" r="6.1878" fill="#2FEBFF"/>
</mask>
<g mask="url(#mask3_1_413)">
<g filter="url(#filter9_d_1_413)">
<rect x="33" y="33" width="47.9993" height="47.9981" fill="#171717"/>
</g>
</g>
</g>
<g opacity="0.35" filter="url(#filter10_f_1_413)">
<mask id="mask4_1_413" style="mask-type:alpha" maskUnits="userSpaceOnUse" x="25" y="25" width="48" height="48">
<path d="M25.4022 31.6183C25.4022 28.2009 28.1725 25.4305 31.59 25.4305H37.7778V37.8061H31.59C28.1725 37.8061 25.4022 35.0357 25.4022 31.6183Z" fill="#FF773D"/>
<path d="M25.4022 43.9939C25.4022 40.5765 28.1725 37.8061 31.59 37.8061H37.7778V50.1817H31.59C28.1725 50.1817 25.4022 47.4113 25.4022 43.9939Z" fill="#C677FF"/>
<path d="M50.1533 31.6183C50.1533 28.2009 47.3829 25.4305 43.9655 25.4305H37.7777V37.8061H43.9655C47.3829 37.8061 50.1533 35.0357 50.1533 31.6183Z" fill="#FFB1A3"/>
<circle cx="43.9656" cy="43.9939" r="6.1878" fill="#2FEBFF"/>
<path d="M37.7778 56.3695C37.7778 59.7869 35.0074 62.5573 31.59 62.5573C28.1725 62.5573 25.4022 59.7869 25.4022 56.3695C25.4022 52.9521 28.1725 50.1817 31.59 50.1817C33.3596 50.1817 37.7778 50.1817 37.7778 50.1817C37.7778 50.1817 37.7778 54.7217 37.7778 56.3695Z" fill="#00EDAB"/>
</mask>
<g mask="url(#mask4_1_413)">
<g filter="url(#filter11_d_1_413)">
<rect x="25" y="25" width="47.9993" height="47.9981" fill="#171717"/>
</g>
</g>
</g>
<g opacity="0.4" filter="url(#filter12_f_1_413)">
<mask id="mask5_1_413" style="mask-type:alpha" maskUnits="userSpaceOnUse" x="24" y="24" width="48" height="48">
<path d="M24.4022 30.6183C24.4022 27.2009 27.1725 24.4305 30.59 24.4305H36.7778V36.8061H30.59C27.1725 36.8061 24.4022 34.0357 24.4022 30.6183Z" fill="#FF773D"/>
<path d="M24.4022 42.9939C24.4022 39.5765 27.1725 36.8061 30.59 36.8061H36.7778V49.1817H30.59C27.1725 49.1817 24.4022 46.4113 24.4022 42.9939Z" fill="#C677FF"/>
<path d="M49.1533 30.6183C49.1533 27.2009 46.3829 24.4305 42.9655 24.4305H36.7777V36.8061H42.9655C46.3829 36.8061 49.1533 34.0357 49.1533 30.6183Z" fill="#FFB1A3"/>
<circle cx="42.9656" cy="42.9939" r="6.1878" fill="#2FEBFF"/>
<path d="M36.7778 55.3695C36.7778 58.7869 34.0074 61.5573 30.59 61.5573C27.1725 61.5573 24.4022 58.7869 24.4022 55.3695C24.4022 51.9521 27.1725 49.1817 30.59 49.1817C32.3596 49.1817 36.7778 49.1817 36.7778 49.1817C36.7778 49.1817 36.7778 53.7217 36.7778 55.3695Z" fill="#00EDAB"/>
</mask>
<g mask="url(#mask5_1_413)">
<g filter="url(#filter13_d_1_413)">
<rect x="24" y="24" width="47.9993" height="47.9981" fill="#171717"/>
</g>
</g>
</g>
<g opacity="0.45" filter="url(#filter14_f_1_413)">
<mask id="mask6_1_413" style="mask-type:alpha" maskUnits="userSpaceOnUse" x="20" y="20" width="48" height="48">
<path d="M20.4022 26.6183C20.4022 23.2009 23.1725 20.4305 26.59 20.4305H32.7778V32.8061H26.59C23.1725 32.8061 20.4022 30.0357 20.4022 26.6183Z" fill="#FF773D"/>
<path d="M20.4022 38.9939C20.4022 35.5765 23.1725 32.8061 26.59 32.8061H32.7778V45.1817H26.59C23.1725 45.1817 20.4022 42.4113 20.4022 38.9939Z" fill="#C677FF"/>
<path d="M45.1533 26.6183C45.1533 23.2009 42.3829 20.4305 38.9655 20.4305H32.7777V32.8061H38.9655C42.3829 32.8061 45.1533 30.0357 45.1533 26.6183Z" fill="#FFB1A3"/>
<circle cx="38.9656" cy="38.9939" r="6.1878" fill="#2FEBFF"/>
<path d="M32.7778 51.3695C32.7778 54.7869 30.0074 57.5573 26.59 57.5573C23.1725 57.5573 20.4022 54.7869 20.4022 51.3695C20.4022 47.9521 23.1725 45.1817 26.59 45.1817C28.3596 45.1817 32.7778 45.1817 32.7778 45.1817C32.7778 45.1817 32.7778 49.7217 32.7778 51.3695Z" fill="#00EDAB"/>
</mask>
<g mask="url(#mask6_1_413)">
<g filter="url(#filter15_d_1_413)">
<rect x="20" y="20" width="47.9993" height="47.9981" fill="#171717"/>
</g>
</g>
</g>
<g opacity="0.5" filter="url(#filter16_f_1_413)">
<mask id="mask7_1_413" style="mask-type:alpha" maskUnits="userSpaceOnUse" x="16" y="16" width="48" height="48">
<path d="M16.4022 22.6183C16.4022 19.2009 19.1725 16.4305 22.59 16.4305H28.7778V28.8061H22.59C19.1725 28.8061 16.4022 26.0357 16.4022 22.6183Z" fill="#FF773D"/>
<path d="M16.4022 34.9939C16.4022 31.5765 19.1725 28.8061 22.59 28.8061H28.7778V41.1817H22.59C19.1725 41.1817 16.4022 38.4113 16.4022 34.9939Z" fill="#C677FF"/>
<path d="M41.1533 22.6183C41.1533 19.2009 38.3829 16.4305 34.9655 16.4305H28.7777V28.8061H34.9655C38.3829 28.8061 41.1533 26.0357 41.1533 22.6183Z" fill="#FFB1A3"/>
<circle cx="34.9656" cy="34.9939" r="6.1878" fill="#2FEBFF"/>
<path d="M28.7778 47.3695C28.7778 50.7869 26.0074 53.5573 22.59 53.5573C19.1725 53.5573 16.4022 50.7869 16.4022 47.3695C16.4022 43.9521 19.1725 41.1817 22.59 41.1817C24.3596 41.1817 28.7778 41.1817 28.7778 41.1817C28.7778 41.1817 28.7778 45.7217 28.7778 47.3695Z" fill="#00EDAB"/>
</mask>
<g mask="url(#mask7_1_413)">
<g filter="url(#filter17_d_1_413)">
<rect x="16" y="16" width="47.9993" height="47.9981" fill="#171717"/>
</g>
</g>
</g>
<g opacity="0.55" filter="url(#filter18_f_1_413)">
<mask id="mask8_1_413" style="mask-type:alpha" maskUnits="userSpaceOnUse" x="14" y="14" width="48" height="48">
<path d="M14.4022 20.6183C14.4022 17.2009 17.1725 14.4305 20.59 14.4305H26.7778V26.8061H20.59C17.1725 26.8061 14.4022 24.0357 14.4022 20.6183Z" fill="#FF773D"/>
<path d="M14.4022 32.9939C14.4022 29.5765 17.1725 26.8061 20.59 26.8061H26.7778V39.1817H20.59C17.1725 39.1817 14.4022 36.4113 14.4022 32.9939Z" fill="#C677FF"/>
<path d="M39.1533 20.6183C39.1533 17.2009 36.3829 14.4305 32.9655 14.4305H26.7777V26.8061H32.9655C36.3829 26.8061 39.1533 24.0357 39.1533 20.6183Z" fill="#FFB1A3"/>
<circle cx="32.9656" cy="32.9939" r="6.1878" fill="#2FEBFF"/>
<path d="M26.7778 45.3695C26.7778 48.7869 24.0074 51.5573 20.59 51.5573C17.1725 51.5573 14.4022 48.7869 14.4022 45.3695C14.4022 41.9521 17.1725 39.1817 20.59 39.1817C22.3596 39.1817 26.7778 39.1817 26.7778 39.1817C26.7778 39.1817 26.7778 43.7217 26.7778 45.3695Z" fill="#00EDAB"/>
</mask>
<g mask="url(#mask8_1_413)">
<g filter="url(#filter19_d_1_413)">
<rect x="14" y="14" width="47.9993" height="47.9981" fill="#171717"/>
</g>
</g>
</g>
<g opacity="0.6" filter="url(#filter20_f_1_413)">
<mask id="mask9_1_413" style="mask-type:alpha" maskUnits="userSpaceOnUse" x="12" y="12" width="48" height="48">
<path d="M12.4022 18.6183C12.4022 15.2009 15.1725 12.4305 18.59 12.4305H24.7778V24.8061H18.59C15.1725 24.8061 12.4022 22.0357 12.4022 18.6183Z" fill="#FF773D"/>
<path d="M12.4022 30.9939C12.4022 27.5765 15.1725 24.8061 18.59 24.8061H24.7778V37.1817H18.59C15.1725 37.1817 12.4022 34.4113 12.4022 30.9939Z" fill="#C677FF"/>
<path d="M37.1533 18.6183C37.1533 15.2009 34.3829 12.4305 30.9655 12.4305H24.7777V24.8061H30.9655C34.3829 24.8061 37.1533 22.0357 37.1533 18.6183Z" fill="#FFB1A3"/>
<circle cx="30.9656" cy="30.9939" r="6.1878" fill="#2FEBFF"/>
<path d="M24.7778 43.3695C24.7778 46.7869 22.0074 49.5573 18.59 49.5573C15.1725 49.5573 12.4022 46.7869 12.4022 43.3695C12.4022 39.9521 15.1725 37.1817 18.59 37.1817C20.3596 37.1817 24.7778 37.1817 24.7778 37.1817C24.7778 37.1817 24.7778 41.7217 24.7778 43.3695Z" fill="#00EDAB"/>
</mask>
<g mask="url(#mask9_1_413)">
<g filter="url(#filter21_d_1_413)">
<rect x="12" y="12" width="47.9993" height="47.9981" fill="#171717"/>
</g>
</g>
</g>
<g opacity="0.6" filter="url(#filter22_f_1_413)">
<mask id="mask10_1_413" style="mask-type:alpha" maskUnits="userSpaceOnUse" x="11" y="11" width="48" height="48">
<path d="M11.4022 17.6183C11.4022 14.2009 14.1725 11.4305 17.59 11.4305H23.7778V23.8061H17.59C14.1725 23.8061 11.4022 21.0357 11.4022 17.6183Z" fill="#FF773D"/>
<path d="M11.4022 29.9939C11.4022 26.5765 14.1725 23.8061 17.59 23.8061H23.7778V36.1817H17.59C14.1725 36.1817 11.4022 33.4113 11.4022 29.9939Z" fill="#C677FF"/>
<path d="M36.1533 17.6183C36.1533 14.2009 33.3829 11.4305 29.9655 11.4305H23.7777V23.8061H29.9655C33.3829 23.8061 36.1533 21.0357 36.1533 17.6183Z" fill="#FFB1A3"/>
<circle cx="29.9656" cy="29.9939" r="6.1878" fill="#2FEBFF"/>
<path d="M23.7778 42.3695C23.7778 45.7869 21.0074 48.5573 17.59 48.5573C14.1725 48.5573 11.4022 45.7869 11.4022 42.3695C11.4022 38.9521 14.1725 36.1817 17.59 36.1817C19.3596 36.1817 23.7778 36.1817 23.7778 36.1817C23.7778 36.1817 23.7778 40.7217 23.7778 42.3695Z" fill="#00EDAB"/>
</mask>
<g mask="url(#mask10_1_413)">
<g filter="url(#filter23_d_1_413)">
<rect x="11" y="11" width="47.9993" height="47.9981" fill="#171717"/>
</g>
</g>
</g>
<g opacity="0.6" filter="url(#filter24_f_1_413)">
<mask id="mask11_1_413" style="mask-type:alpha" maskUnits="userSpaceOnUse" x="10" y="10" width="48" height="48">
<path d="M10.4022 16.6183C10.4022 13.2009 13.1725 10.4305 16.59 10.4305H22.7778V22.8061H16.59C13.1725 22.8061 10.4022 20.0357 10.4022 16.6183Z" fill="#FF773D"/>
<path d="M10.4022 28.9939C10.4022 25.5765 13.1725 22.8061 16.59 22.8061H22.7778V35.1817H16.59C13.1725 35.1817 10.4022 32.4113 10.4022 28.9939Z" fill="#C677FF"/>
<path d="M35.1533 16.6183C35.1533 13.2009 32.3829 10.4305 28.9655 10.4305H22.7777V22.8061H28.9655C32.3829 22.8061 35.1533 20.0357 35.1533 16.6183Z" fill="#FFB1A3"/>
<circle cx="28.9656" cy="28.9939" r="6.1878" fill="#2FEBFF"/>
<path d="M22.7778 41.3695C22.7778 44.7869 20.0074 47.5573 16.59 47.5573C13.1725 47.5573 10.4022 44.7869 10.4022 41.3695C10.4022 37.9521 13.1725 35.1817 16.59 35.1817C18.3596 35.1817 22.7778 35.1817 22.7778 35.1817C22.7778 35.1817 22.7778 39.7217 22.7778 41.3695Z" fill="#00EDAB"/>
</mask>
<g mask="url(#mask11_1_413)">
<g filter="url(#filter25_d_1_413)">
<rect x="10" y="10" width="47.9993" height="47.9981" fill="#171717"/>
</g>
</g>
</g>
<g opacity="0.6" filter="url(#filter26_f_1_413)">
<mask id="mask12_1_413" style="mask-type:alpha" maskUnits="userSpaceOnUse" x="9" y="9" width="49" height="49">
<path d="M9.90218 16.1183C9.90218 12.7009 12.6725 9.93051 16.09 9.93051H22.2778V22.3061H16.09C12.6725 22.3061 9.90218 19.5357 9.90218 16.1183Z" fill="#FF773D"/>
<path d="M9.90218 28.4939C9.90218 25.0765 12.6725 22.3061 16.09 22.3061H22.2778V34.6817H16.09C12.6725 34.6817 9.90218 31.9113 9.90218 28.4939Z" fill="#C677FF"/>
<path d="M34.6533 16.1183C34.6533 12.7009 31.8829 9.93051 28.4655 9.93051H22.2777V22.3061H28.4655C31.8829 22.3061 34.6533 19.5357 34.6533 16.1183Z" fill="#FFB1A3"/>
<circle cx="28.4656" cy="28.4939" r="6.1878" fill="#2FEBFF"/>
<path d="M22.2778 40.8695C22.2778 44.2869 19.5074 47.0573 16.09 47.0573C12.6725 47.0573 9.90218 44.2869 9.90218 40.8695C9.90218 37.4521 12.6725 34.6817 16.09 34.6817C17.8596 34.6817 22.2778 34.6817 22.2778 34.6817C22.2778 34.6817 22.2778 39.2217 22.2778 40.8695Z" fill="#00EDAB"/>
</mask>
<g mask="url(#mask12_1_413)">
<g filter="url(#filter27_d_1_413)">
<rect x="9.5" y="9.5" width="47.9993" height="47.9981" fill="#171717"/>
</g>
</g>
</g>
<g filter="url(#filter28_ii_1_413)">
<path d="M9.40218 15.6183C9.40218 12.2009 12.1725 9.43051 15.59 9.43051H21.7778V21.8061H15.59C12.1725 21.8061 9.40218 19.0357 9.40218 15.6183Z" fill="#FF773D"/>
</g>
<g filter="url(#filter29_ii_1_413)">
<path d="M9.40218 27.9939C9.40218 24.5765 12.1725 21.8061 15.59 21.8061H21.7778V34.1817H15.59C12.1725 34.1817 9.40218 31.4113 9.40218 27.9939Z" fill="#C677FF"/>
</g>
<g filter="url(#filter30_ii_1_413)">
<path d="M34.1533 15.6183C34.1533 12.2009 31.3829 9.43051 27.9655 9.43051H21.7777V21.8061H27.9655C31.3829 21.8061 34.1533 19.0357 34.1533 15.6183Z" fill="#FFB1A3"/>
</g>
<g filter="url(#filter31_ii_1_413)">
<circle cx="27.9656" cy="27.9939" r="6.1878" fill="#2FEBFF"/>
</g>
<g filter="url(#filter32_ii_1_413)">
<path d="M21.7778 40.3695C21.7778 43.7869 19.0074 46.5573 15.59 46.5573C12.1725 46.5573 9.40218 43.7869 9.40218 40.3695C9.40218 36.9521 12.1725 34.1817 15.59 34.1817C17.3596 34.1817 21.7778 34.1817 21.7778 34.1817C21.7778 34.1817 21.7778 38.7217 21.7778 40.3695Z" fill="#00EDAB"/>
</g>
<defs>
<filter id="filter0_f_1_413" x="13" y="13" width="144" height="144" filterUnits="userSpaceOnUse" color-interpolation-filters="sRGB">
<feFlood flood-opacity="0" result="BackgroundImageFix"/>
<feBlend mode="normal" in="SourceGraphic" in2="BackgroundImageFix" result="shape"/>
<feGaussianBlur stdDeviation="24" result="effect1_foregroundBlur_1_413"/>
</filter>
<filter id="filter1_f_1_413" x="13" y="13" width="136" height="136" filterUnits="userSpaceOnUse" color-interpolation-filters="sRGB">
<feFlood flood-opacity="0" result="BackgroundImageFix"/>
<feBlend mode="normal" in="SourceGraphic" in2="BackgroundImageFix" result="shape"/>
<feGaussianBlur stdDeviation="22" result="effect1_foregroundBlur_1_413"/>
</filter>
<filter id="filter2_f_1_413" x="13" y="13" width="128" height="128" filterUnits="userSpaceOnUse" color-interpolation-filters="sRGB">
<feFlood flood-opacity="0" result="BackgroundImageFix"/>
<feBlend mode="normal" in="SourceGraphic" in2="BackgroundImageFix" result="shape"/>
<feGaussianBlur stdDeviation="20" result="effect1_foregroundBlur_1_413"/>
</filter>
<filter id="filter3_d_1_413" x="49" y="53" width="55.9993" height="55.9981" filterUnits="userSpaceOnUse" color-interpolation-filters="sRGB">
<feFlood flood-opacity="0" result="BackgroundImageFix"/>
<feColorMatrix in="SourceAlpha" type="matrix" values="0 0 0 0 0 0 0 0 0 0 0 0 0 0 0 0 0 0 127 0" result="hardAlpha"/>
<feOffset dy="4"/>
<feGaussianBlur stdDeviation="2"/>
<feComposite in2="hardAlpha" operator="out"/>
<feColorMatrix type="matrix" values="0 0 0 0 0 0 0 0 0 0 0 0 0 0 0 0 0 0 0.25 0"/>
<feBlend mode="normal" in2="BackgroundImageFix" result="effect1_dropShadow_1_413"/>
<feBlend mode="normal" in="SourceGraphic" in2="effect1_dropShadow_1_413" result="shape"/>
</filter>
<filter id="filter4_f_1_413" x="9" y="9" width="128" height="128" filterUnits="userSpaceOnUse" color-interpolation-filters="sRGB">
<feFlood flood-opacity="0" result="BackgroundImageFix"/>
<feBlend mode="normal" in="SourceGraphic" in2="BackgroundImageFix" result="shape"/>
<feGaussianBlur stdDeviation="20" result="effect1_foregroundBlur_1_413"/>
</filter>
<filter id="filter5_d_1_413" x="45" y="49" width="55.9993" height="55.9981" filterUnits="userSpaceOnUse" color-interpolation-filters="sRGB">
<feFlood flood-opacity="0" result="BackgroundImageFix"/>
<feColorMatrix in="SourceAlpha" type="matrix" values="0 0 0 0 0 0 0 0 0 0 0 0 0 0 0 0 0 0 127 0" result="hardAlpha"/>
<feOffset dy="4"/>
<feGaussianBlur stdDeviation="2"/>
<feComposite in2="hardAlpha" operator="out"/>
<feColorMatrix type="matrix" values="0 0 0 0 0 0 0 0 0 0 0 0 0 0 0 0 0 0 0.25 0"/>
<feBlend mode="normal" in2="BackgroundImageFix" result="effect1_dropShadow_1_413"/>
<feBlend mode="normal" in="SourceGraphic" in2="effect1_dropShadow_1_413" result="shape"/>
</filter>
<filter id="filter6_f_1_413" x="9" y="9" width="112" height="112" filterUnits="userSpaceOnUse" color-interpolation-filters="sRGB">
<feFlood flood-opacity="0" result="BackgroundImageFix"/>
<feBlend mode="normal" in="SourceGraphic" in2="BackgroundImageFix" result="shape"/>
<feGaussianBlur stdDeviation="16" result="effect1_foregroundBlur_1_413"/>
</filter>
<filter id="filter7_d_1_413" x="37" y="41" width="55.9993" height="55.9981" filterUnits="userSpaceOnUse" color-interpolation-filters="sRGB">
<feFlood flood-opacity="0" result="BackgroundImageFix"/>
<feColorMatrix in="SourceAlpha" type="matrix" values="0 0 0 0 0 0 0 0 0 0 0 0 0 0 0 0 0 0 127 0" result="hardAlpha"/>
<feOffset dy="4"/>
<feGaussianBlur stdDeviation="2"/>
<feComposite in2="hardAlpha" operator="out"/>
<feColorMatrix type="matrix" values="0 0 0 0 0 0 0 0 0 0 0 0 0 0 0 0 0 0 0.25 0"/>
<feBlend mode="normal" in2="BackgroundImageFix" result="effect1_dropShadow_1_413"/>
<feBlend mode="normal" in="SourceGraphic" in2="effect1_dropShadow_1_413" result="shape"/>
</filter>
<filter id="filter8_f_1_413" x="5" y="5" width="104" height="104" filterUnits="userSpaceOnUse" color-interpolation-filters="sRGB">
<feFlood flood-opacity="0" result="BackgroundImageFix"/>
<feBlend mode="normal" in="SourceGraphic" in2="BackgroundImageFix" result="shape"/>
<feGaussianBlur stdDeviation="14" result="effect1_foregroundBlur_1_413"/>
</filter>
<filter id="filter9_d_1_413" x="29" y="33" width="55.9993" height="55.9981" filterUnits="userSpaceOnUse" color-interpolation-filters="sRGB">
<feFlood flood-opacity="0" result="BackgroundImageFix"/>
<feColorMatrix in="SourceAlpha" type="matrix" values="0 0 0 0 0 0 0 0 0 0 0 0 0 0 0 0 0 0 127 0" result="hardAlpha"/>
<feOffset dy="4"/>
<feGaussianBlur stdDeviation="2"/>
<feComposite in2="hardAlpha" operator="out"/>
<feColorMatrix type="matrix" values="0 0 0 0 0 0 0 0 0 0 0 0 0 0 0 0 0 0 0.25 0"/>
<feBlend mode="normal" in2="BackgroundImageFix" result="effect1_dropShadow_1_413"/>
<feBlend mode="normal" in="SourceGraphic" in2="effect1_dropShadow_1_413" result="shape"/>
</filter>
<filter id="filter10_f_1_413" x="1" y="1" width="96" height="96" filterUnits="userSpaceOnUse" color-interpolation-filters="sRGB">
<feFlood flood-opacity="0" result="BackgroundImageFix"/>
<feBlend mode="normal" in="SourceGraphic" in2="BackgroundImageFix" result="shape"/>
<feGaussianBlur stdDeviation="12" result="effect1_foregroundBlur_1_413"/>
</filter>
<filter id="filter11_d_1_413" x="21" y="25" width="55.9993" height="55.9981" filterUnits="userSpaceOnUse" color-interpolation-filters="sRGB">
<feFlood flood-opacity="0" result="BackgroundImageFix"/>
<feColorMatrix in="SourceAlpha" type="matrix" values="0 0 0 0 0 0 0 0 0 0 0 0 0 0 0 0 0 0 127 0" result="hardAlpha"/>
<feOffset dy="4"/>
<feGaussianBlur stdDeviation="2"/>
<feComposite in2="hardAlpha" operator="out"/>
<feColorMatrix type="matrix" values="0 0 0 0 0 0 0 0 0 0 0 0 0 0 0 0 0 0 0.25 0"/>
<feBlend mode="normal" in2="BackgroundImageFix" result="effect1_dropShadow_1_413"/>
<feBlend mode="normal" in="SourceGraphic" in2="effect1_dropShadow_1_413" result="shape"/>
</filter>
<filter id="filter12_f_1_413" x="0" y="0" width="96" height="96" filterUnits="userSpaceOnUse" color-interpolation-filters="sRGB">
<feFlood flood-opacity="0" result="BackgroundImageFix"/>
<feBlend mode="normal" in="SourceGraphic" in2="BackgroundImageFix" result="shape"/>
<feGaussianBlur stdDeviation="12" result="effect1_foregroundBlur_1_413"/>
</filter>
<filter id="filter13_d_1_413" x="20" y="24" width="55.9993" height="55.9981" filterUnits="userSpaceOnUse" color-interpolation-filters="sRGB">
<feFlood flood-opacity="0" result="BackgroundImageFix"/>
<feColorMatrix in="SourceAlpha" type="matrix" values="0 0 0 0 0 0 0 0 0 0 0 0 0 0 0 0 0 0 127 0" result="hardAlpha"/>
<feOffset dy="4"/>
<feGaussianBlur stdDeviation="2"/>
<feComposite in2="hardAlpha" operator="out"/>
<feColorMatrix type="matrix" values="0 0 0 0 0 0 0 0 0 0 0 0 0 0 0 0 0 0 0.25 0"/>
<feBlend mode="normal" in2="BackgroundImageFix" result="effect1_dropShadow_1_413"/>
<feBlend mode="normal" in="SourceGraphic" in2="effect1_dropShadow_1_413" result="shape"/>
</filter>
<filter id="filter14_f_1_413" x="4" y="4" width="80" height="80" filterUnits="userSpaceOnUse" color-interpolation-filters="sRGB">
<feFlood flood-opacity="0" result="BackgroundImageFix"/>
<feBlend mode="normal" in="SourceGraphic" in2="BackgroundImageFix" result="shape"/>
<feGaussianBlur stdDeviation="8" result="effect1_foregroundBlur_1_413"/>
</filter>
<filter id="filter15_d_1_413" x="16" y="20" width="55.9993" height="55.9981" filterUnits="userSpaceOnUse" color-interpolation-filters="sRGB">
<feFlood flood-opacity="0" result="BackgroundImageFix"/>
<feColorMatrix in="SourceAlpha" type="matrix" values="0 0 0 0 0 0 0 0 0 0 0 0 0 0 0 0 0 0 127 0" result="hardAlpha"/>
<feOffset dy="4"/>
<feGaussianBlur stdDeviation="2"/>
<feComposite in2="hardAlpha" operator="out"/>
<feColorMatrix type="matrix" values="0 0 0 0 0 0 0 0 0 0 0 0 0 0 0 0 0 0 0.25 0"/>
<feBlend mode="normal" in2="BackgroundImageFix" result="effect1_dropShadow_1_413"/>
<feBlend mode="normal" in="SourceGraphic" in2="effect1_dropShadow_1_413" result="shape"/>
</filter>
<filter id="filter16_f_1_413" x="6" y="6" width="68" height="68" filterUnits="userSpaceOnUse" color-interpolation-filters="sRGB">
<feFlood flood-opacity="0" result="BackgroundImageFix"/>
<feBlend mode="normal" in="SourceGraphic" in2="BackgroundImageFix" result="shape"/>
<feGaussianBlur stdDeviation="5" result="effect1_foregroundBlur_1_413"/>
</filter>
<filter id="filter17_d_1_413" x="12" y="16" width="55.9993" height="55.9981" filterUnits="userSpaceOnUse" color-interpolation-filters="sRGB">
<feFlood flood-opacity="0" result="BackgroundImageFix"/>
<feColorMatrix in="SourceAlpha" type="matrix" values="0 0 0 0 0 0 0 0 0 0 0 0 0 0 0 0 0 0 127 0" result="hardAlpha"/>
<feOffset dy="4"/>
<feGaussianBlur stdDeviation="2"/>
<feComposite in2="hardAlpha" operator="out"/>
<feColorMatrix type="matrix" values="0 0 0 0 0 0 0 0 0 0 0 0 0 0 0 0 0 0 0.25 0"/>
<feBlend mode="normal" in2="BackgroundImageFix" result="effect1_dropShadow_1_413"/>
<feBlend mode="normal" in="SourceGraphic" in2="effect1_dropShadow_1_413" result="shape"/>
</filter>
<filter id="filter18_f_1_413" x="8" y="8" width="60" height="60" filterUnits="userSpaceOnUse" color-interpolation-filters="sRGB">
<feFlood flood-opacity="0" result="BackgroundImageFix"/>
<feBlend mode="normal" in="SourceGraphic" in2="BackgroundImageFix" result="shape"/>
<feGaussianBlur stdDeviation="3" result="effect1_foregroundBlur_1_413"/>
</filter>
<filter id="filter19_d_1_413" x="10" y="14" width="55.9993" height="55.9981" filterUnits="userSpaceOnUse" color-interpolation-filters="sRGB">
<feFlood flood-opacity="0" result="BackgroundImageFix"/>
<feColorMatrix in="SourceAlpha" type="matrix" values="0 0 0 0 0 0 0 0 0 0 0 0 0 0 0 0 0 0 127 0" result="hardAlpha"/>
<feOffset dy="4"/>
<feGaussianBlur stdDeviation="2"/>
<feComposite in2="hardAlpha" operator="out"/>
<feColorMatrix type="matrix" values="0 0 0 0 0 0 0 0 0 0 0 0 0 0 0 0 0 0 0.25 0"/>
<feBlend mode="normal" in2="BackgroundImageFix" result="effect1_dropShadow_1_413"/>
<feBlend mode="normal" in="SourceGraphic" in2="effect1_dropShadow_1_413" result="shape"/>
</filter>
<filter id="filter20_f_1_413" x="8" y="8" width="56" height="56" filterUnits="userSpaceOnUse" color-interpolation-filters="sRGB">
<feFlood flood-opacity="0" result="BackgroundImageFix"/>
<feBlend mode="normal" in="SourceGraphic" in2="BackgroundImageFix" result="shape"/>
<feGaussianBlur stdDeviation="2" result="effect1_foregroundBlur_1_413"/>
</filter>
<filter id="filter21_d_1_413" x="8" y="12" width="55.9993" height="55.9981" filterUnits="userSpaceOnUse" color-interpolation-filters="sRGB">
<feFlood flood-opacity="0" result="BackgroundImageFix"/>
<feColorMatrix in="SourceAlpha" type="matrix" values="0 0 0 0 0 0 0 0 0 0 0 0 0 0 0 0 0 0 127 0" result="hardAlpha"/>
<feOffset dy="4"/>
<feGaussianBlur stdDeviation="2"/>
<feComposite in2="hardAlpha" operator="out"/>
<feColorMatrix type="matrix" values="0 0 0 0 0 0 0 0 0 0 0 0 0 0 0 0 0 0 0.25 0"/>
<feBlend mode="normal" in2="BackgroundImageFix" result="effect1_dropShadow_1_413"/>
<feBlend mode="normal" in="SourceGraphic" in2="effect1_dropShadow_1_413" result="shape"/>
</filter>
<filter id="filter22_f_1_413" x="8" y="8" width="54" height="54" filterUnits="userSpaceOnUse" color-interpolation-filters="sRGB">
<feFlood flood-opacity="0" result="BackgroundImageFix"/>
<feBlend mode="normal" in="SourceGraphic" in2="BackgroundImageFix" result="shape"/>
<feGaussianBlur stdDeviation="1.5" result="effect1_foregroundBlur_1_413"/>
</filter>
<filter id="filter23_d_1_413" x="7" y="11" width="55.9993" height="55.9981" filterUnits="userSpaceOnUse" color-interpolation-filters="sRGB">
<feFlood flood-opacity="0" result="BackgroundImageFix"/>
<feColorMatrix in="SourceAlpha" type="matrix" values="0 0 0 0 0 0 0 0 0 0 0 0 0 0 0 0 0 0 127 0" result="hardAlpha"/>
<feOffset dy="4"/>
<feGaussianBlur stdDeviation="2"/>
<feComposite in2="hardAlpha" operator="out"/>
<feColorMatrix type="matrix" values="0 0 0 0 0 0 0 0 0 0 0 0 0 0 0 0 0 0 0.25 0"/>
<feBlend mode="normal" in2="BackgroundImageFix" result="effect1_dropShadow_1_413"/>
<feBlend mode="normal" in="SourceGraphic" in2="effect1_dropShadow_1_413" result="shape"/>
</filter>
<filter id="filter24_f_1_413" x="8" y="8" width="52" height="52" filterUnits="userSpaceOnUse" color-interpolation-filters="sRGB">
<feFlood flood-opacity="0" result="BackgroundImageFix"/>
<feBlend mode="normal" in="SourceGraphic" in2="BackgroundImageFix" result="shape"/>
<feGaussianBlur stdDeviation="1" result="effect1_foregroundBlur_1_413"/>
</filter>
<filter id="filter25_d_1_413" x="6" y="10" width="55.9993" height="55.9981" filterUnits="userSpaceOnUse" color-interpolation-filters="sRGB">
<feFlood flood-opacity="0" result="BackgroundImageFix"/>
<feColorMatrix in="SourceAlpha" type="matrix" values="0 0 0 0 0 0 0 0 0 0 0 0 0 0 0 0 0 0 127 0" result="hardAlpha"/>
<feOffset dy="4"/>
<feGaussianBlur stdDeviation="2"/>
<feComposite in2="hardAlpha" operator="out"/>
<feColorMatrix type="matrix" values="0 0 0 0 0 0 0 0 0 0 0 0 0 0 0 0 0 0 0.25 0"/>
<feBlend mode="normal" in2="BackgroundImageFix" result="effect1_dropShadow_1_413"/>
<feBlend mode="normal" in="SourceGraphic" in2="effect1_dropShadow_1_413" result="shape"/>
</filter>
<filter id="filter26_f_1_413" x="8.5" y="8.5" width="50" height="50" filterUnits="userSpaceOnUse" color-interpolation-filters="sRGB">
<feFlood flood-opacity="0" result="BackgroundImageFix"/>
<feBlend mode="normal" in="SourceGraphic" in2="BackgroundImageFix" result="shape"/>
<feGaussianBlur stdDeviation="0.5" result="effect1_foregroundBlur_1_413"/>
</filter>
<filter id="filter27_d_1_413" x="5.5" y="9.5" width="55.9993" height="55.9981" filterUnits="userSpaceOnUse" color-interpolation-filters="sRGB">
<feFlood flood-opacity="0" result="BackgroundImageFix"/>
<feColorMatrix in="SourceAlpha" type="matrix" values="0 0 0 0 0 0 0 0 0 0 0 0 0 0 0 0 0 0 127 0" result="hardAlpha"/>
<feOffset dy="4"/>
<feGaussianBlur stdDeviation="2"/>
<feComposite in2="hardAlpha" operator="out"/>
<feColorMatrix type="matrix" values="0 0 0 0 0 0 0 0 0 0 0 0 0 0 0 0 0 0 0.25 0"/>
<feBlend mode="normal" in2="BackgroundImageFix" result="effect1_dropShadow_1_413"/>
<feBlend mode="normal" in="SourceGraphic" in2="effect1_dropShadow_1_413" result="shape"/>
</filter>
<filter id="filter28_ii_1_413" x="9.01544" y="8.65704" width="12.7623" height="13.9225" filterUnits="userSpaceOnUse" color-interpolation-filters="sRGB">
<feFlood flood-opacity="0" result="BackgroundImageFix"/>
<feBlend mode="normal" in="SourceGraphic" in2="BackgroundImageFix" result="shape"/>
<feColorMatrix in="SourceAlpha" type="matrix" values="0 0 0 0 0 0 0 0 0 0 0 0 0 0 0 0 0 0 127 0" result="hardAlpha"/>
<feOffset dx="-0.386737" dy="-0.773474"/>
<feGaussianBlur stdDeviation="2.32042"/>
<feComposite in2="hardAlpha" operator="arithmetic" k2="-1" k3="1"/>
<feColorMatrix type="matrix" values="0 0 0 0 1 0 0 0 0 0.06 0 0 0 0 0 0 0 0 1 0"/>
<feBlend mode="normal" in2="shape" result="effect1_innerShadow_1_413"/>
<feColorMatrix in="SourceAlpha" type="matrix" values="0 0 0 0 0 0 0 0 0 0 0 0 0 0 0 0 0 0 127 0" result="hardAlpha"/>
<feOffset dy="0.773474"/>
<feGaussianBlur stdDeviation="3.0939"/>
<feComposite in2="hardAlpha" operator="arithmetic" k2="-1" k3="1"/>
<feColorMatrix type="matrix" values="0 0 0 0 1 0 0 0 0 1 0 0 0 0 1 0 0 0 1 0"/>
<feBlend mode="soft-light" in2="effect1_innerShadow_1_413" result="effect2_innerShadow_1_413"/>
</filter>
<filter id="filter29_ii_1_413" x="9.01544" y="21.0326" width="12.7623" height="13.9225" filterUnits="userSpaceOnUse" color-interpolation-filters="sRGB">
<feFlood flood-opacity="0" result="BackgroundImageFix"/>
<feBlend mode="normal" in="SourceGraphic" in2="BackgroundImageFix" result="shape"/>
<feColorMatrix in="SourceAlpha" type="matrix" values="0 0 0 0 0 0 0 0 0 0 0 0 0 0 0 0 0 0 127 0" result="hardAlpha"/>
<feOffset dx="-0.386737" dy="-0.773474"/>
<feGaussianBlur stdDeviation="2.70716"/>
<feComposite in2="hardAlpha" operator="arithmetic" k2="-1" k3="1"/>
<feColorMatrix type="matrix" values="0 0 0 0 0.228977 0 0 0 0 0 0 0 0 0 0.3875 0 0 0 1 0"/>
<feBlend mode="normal" in2="shape" result="effect1_innerShadow_1_413"/>
<feColorMatrix in="SourceAlpha" type="matrix" values="0 0 0 0 0 0 0 0 0 0 0 0 0 0 0 0 0 0 127 0" result="hardAlpha"/>
<feOffset dy="0.773474"/>
<feGaussianBlur stdDeviation="3.0939"/>
<feComposite in2="hardAlpha" operator="arithmetic" k2="-1" k3="1"/>
<feColorMatrix type="matrix" values="0 0 0 0 1 0 0 0 0 1 0 0 0 0 1 0 0 0 1 0"/>
<feBlend mode="soft-light" in2="effect1_innerShadow_1_413" result="effect2_innerShadow_1_413"/>
</filter>
<filter id="filter30_ii_1_413" x="21.391" y="8.65704" width="12.7623" height="13.9225" filterUnits="userSpaceOnUse" color-interpolation-filters="sRGB">
<feFlood flood-opacity="0" result="BackgroundImageFix"/>
<feBlend mode="normal" in="SourceGraphic" in2="BackgroundImageFix" result="shape"/>
<feColorMatrix in="SourceAlpha" type="matrix" values="0 0 0 0 0 0 0 0 0 0 0 0 0 0 0 0 0 0 127 0" result="hardAlpha"/>
<feOffset dx="-0.386737" dy="-0.773474"/>
<feGaussianBlur stdDeviation="2.32042"/>
<feComposite in2="hardAlpha" operator="arithmetic" k2="-1" k3="1"/>
<feColorMatrix type="matrix" values="0 0 0 0 1 0 0 0 0 0.159664 0 0 0 0 0 0 0 0 1 0"/>
<feBlend mode="normal" in2="shape" result="effect1_innerShadow_1_413"/>
<feColorMatrix in="SourceAlpha" type="matrix" values="0 0 0 0 0 0 0 0 0 0 0 0 0 0 0 0 0 0 127 0" result="hardAlpha"/>
<feOffset dy="0.773474"/>
<feGaussianBlur stdDeviation="3.0939"/>
<feComposite in2="hardAlpha" operator="arithmetic" k2="-1" k3="1"/>
<feColorMatrix type="matrix" values="0 0 0 0 1 0 0 0 0 1 0 0 0 0 1 0 0 0 1 0"/>
<feBlend mode="soft-light" in2="effect1_innerShadow_1_413" result="effect2_innerShadow_1_413"/>
</filter>
<filter id="filter31_ii_1_413" x="21.3911" y="21.0326" width="12.7623" height="13.9225" filterUnits="userSpaceOnUse" color-interpolation-filters="sRGB">
<feFlood flood-opacity="0" result="BackgroundImageFix"/>
<feBlend mode="normal" in="SourceGraphic" in2="BackgroundImageFix" result="shape"/>
<feColorMatrix in="SourceAlpha" type="matrix" values="0 0 0 0 0 0 0 0 0 0 0 0 0 0 0 0 0 0 127 0" result="hardAlpha"/>
<feOffset dx="-0.386737" dy="-0.773474"/>
<feGaussianBlur stdDeviation="2.32042"/>
<feComposite in2="hardAlpha" operator="arithmetic" k2="-1" k3="1"/>
<feColorMatrix type="matrix" values="0 0 0 0 0 0 0 0 0 0.113333 0 0 0 0 0.333333 0 0 0 1 0"/>
<feBlend mode="normal" in2="shape" result="effect1_innerShadow_1_413"/>
<feColorMatrix in="SourceAlpha" type="matrix" values="0 0 0 0 0 0 0 0 0 0 0 0 0 0 0 0 0 0 127 0" result="hardAlpha"/>
<feOffset dy="0.773474"/>
<feGaussianBlur stdDeviation="3.0939"/>
<feComposite in2="hardAlpha" operator="arithmetic" k2="-1" k3="1"/>
<feColorMatrix type="matrix" values="0 0 0 0 1 0 0 0 0 1 0 0 0 0 1 0 0 0 1 0"/>
<feBlend mode="soft-light" in2="effect1_innerShadow_1_413" result="effect2_innerShadow_1_413"/>
</filter>
<filter id="filter32_ii_1_413" x="9.01544" y="33.4082" width="12.7623" height="13.9225" filterUnits="userSpaceOnUse" color-interpolation-filters="sRGB">
<feFlood flood-opacity="0" result="BackgroundImageFix"/>
<feBlend mode="normal" in="SourceGraphic" in2="BackgroundImageFix" result="shape"/>
<feColorMatrix in="SourceAlpha" type="matrix" values="0 0 0 0 0 0 0 0 0 0 0 0 0 0 0 0 0 0 127 0" result="hardAlpha"/>
<feOffset dx="-0.386737" dy="-0.773474"/>
<feGaussianBlur stdDeviation="2.70716"/>
<feComposite in2="hardAlpha" operator="arithmetic" k2="-1" k3="1"/>
<feColorMatrix type="matrix" values="0 0 0 0 0 0 0 0 0 0.145833 0 0 0 0 0.107843 0 0 0 1 0"/>
<feBlend mode="normal" in2="shape" result="effect1_innerShadow_1_413"/>
<feColorMatrix in="SourceAlpha" type="matrix" values="0 0 0 0 0 0 0 0 0 0 0 0 0 0 0 0 0 0 127 0" result="hardAlpha"/>
<feOffset dy="0.773474"/>
<feGaussianBlur stdDeviation="3.0939"/>
<feComposite in2="hardAlpha" operator="arithmetic" k2="-1" k3="1"/>
<feColorMatrix type="matrix" values="0 0 0 0 1 0 0 0 0 1 0 0 0 0 1 0 0 0 1 0"/>
<feBlend mode="soft-light" in2="effect1_innerShadow_1_413" result="effect2_innerShadow_1_413"/>
</filter>
</defs>
</svg>
